<mxfile host="app.diagrams.net" modified="2023-08-14T14:44:25.200Z" agent="Mozilla/5.0 (Windows NT 10.0; Win64; x64) AppleWebKit/537.36 (KHTML, like Gecko) Chrome/115.0.0.0 Safari/537.36 Edg/115.0.1901.203" etag="UrL5OmIoeup8oeTUPrGe" version="21.6.6" type="github" pages="2">
  <diagram name="Seite-1" id="2r8p-WgXXLXQ20rypwQL">
    <mxGraphModel dx="1632" dy="1156" grid="1" gridSize="10" guides="1" tooltips="1" connect="1" arrows="1" fold="1" page="1" pageScale="1" pageWidth="827" pageHeight="1169" math="0" shadow="0">
      <root>
        <mxCell id="0" />
        <mxCell id="1" parent="0" />
        <mxCell id="fDrhmd0LgQ4K7re33KFJ-1" value="10 ms&amp;nbsp;" style="swimlane;whiteSpace=wrap;html=1;" vertex="1" parent="1">
          <mxGeometry x="70" y="120" width="280" height="690" as="geometry" />
        </mxCell>
        <mxCell id="fDrhmd0LgQ4K7re33KFJ-7" value="performComputationnalHold_EEC" style="rounded=1;html=1;whiteSpace=wrap;" vertex="1" parent="fDrhmd0LgQ4K7re33KFJ-1">
          <mxGeometry x="20" y="60" width="230" height="60" as="geometry" />
        </mxCell>
        <mxCell id="fDrhmd0LgQ4K7re33KFJ-2" value="Vertical Container" style="swimlane;whiteSpace=wrap;html=1;" vertex="1" parent="1">
          <mxGeometry x="400" y="120" width="240" height="700" as="geometry" />
        </mxCell>
        <mxCell id="fDrhmd0LgQ4K7re33KFJ-3" value="Vertical Container" style="swimlane;whiteSpace=wrap;html=1;" vertex="1" parent="1">
          <mxGeometry x="720" y="120" width="240" height="700" as="geometry" />
        </mxCell>
        <mxCell id="fDrhmd0LgQ4K7re33KFJ-9" value="OS Tasks" style="swimlane;whiteSpace=wrap;html=1;" vertex="1" parent="1">
          <mxGeometry x="20" y="50" width="1120" height="870" as="geometry" />
        </mxCell>
        <mxCell id="fDrhmd0LgQ4K7re33KFJ-11" value="Task_RTE_KVA" style="swimlane;whiteSpace=wrap;html=1;" vertex="1" parent="fDrhmd0LgQ4K7re33KFJ-9">
          <mxGeometry x="20" y="40" width="1040" height="820" as="geometry" />
        </mxCell>
        <mxCell id="fDrhmd0LgQ4K7re33KFJ-12" value="performComputationnalHold_EEC" style="rounded=1;html=1;whiteSpace=wrap;" vertex="1" parent="fDrhmd0LgQ4K7re33KFJ-11">
          <mxGeometry x="55" y="160" width="230" height="60" as="geometry" />
        </mxCell>
      </root>
    </mxGraphModel>
  </diagram>
  <diagram id="rEfTd1J7hMIjnuMR53UG" name="Seite-2">
    <mxGraphModel dx="1392" dy="797" grid="1" gridSize="10" guides="1" tooltips="1" connect="1" arrows="1" fold="1" page="1" pageScale="1" pageWidth="827" pageHeight="1169" math="0" shadow="0">
      <root>
        <mxCell id="0" />
        <mxCell id="1" parent="0" />
        <mxCell id="IYGyxFWno1vfdrMYQsZQ-14" value="INVALID_FALSE" style="rounded=0;whiteSpace=wrap;html=1;fillColor=#d5e8d4;strokeColor=#82b366;verticalAlign=top;" vertex="1" parent="1">
          <mxGeometry x="540" y="480" width="130" height="180" as="geometry" />
        </mxCell>
        <mxCell id="IYGyxFWno1vfdrMYQsZQ-9" value="INVALID_TRUE" style="rounded=0;whiteSpace=wrap;html=1;fillColor=#f8cecc;strokeColor=#b85450;verticalAlign=top;" vertex="1" parent="1">
          <mxGeometry x="320" y="480" width="220" height="180" as="geometry" />
        </mxCell>
        <mxCell id="IYGyxFWno1vfdrMYQsZQ-8" value="INVALID_FALSE" style="rounded=0;whiteSpace=wrap;html=1;fillColor=#d5e8d4;strokeColor=#82b366;verticalAlign=top;" vertex="1" parent="1">
          <mxGeometry x="140" y="480" width="180" height="180" as="geometry" />
        </mxCell>
        <mxCell id="IYGyxFWno1vfdrMYQsZQ-2" value="" style="endArrow=classic;html=1;rounded=0;strokeWidth=5;" edge="1" parent="1">
          <mxGeometry width="50" height="50" relative="1" as="geometry">
            <mxPoint x="110" y="660" as="sourcePoint" />
            <mxPoint x="700" y="660" as="targetPoint" />
          </mxGeometry>
        </mxCell>
        <mxCell id="IYGyxFWno1vfdrMYQsZQ-3" value="" style="endArrow=classic;html=1;rounded=0;strokeWidth=5;" edge="1" parent="1">
          <mxGeometry width="50" height="50" relative="1" as="geometry">
            <mxPoint x="140" y="680" as="sourcePoint" />
            <mxPoint x="140" y="440" as="targetPoint" />
          </mxGeometry>
        </mxCell>
        <mxCell id="IYGyxFWno1vfdrMYQsZQ-4" value="" style="endArrow=none;dashed=1;html=1;dashPattern=1 3;strokeWidth=2;rounded=0;fontStyle=1" edge="1" parent="1">
          <mxGeometry width="50" height="50" relative="1" as="geometry">
            <mxPoint x="120" y="640" as="sourcePoint" />
            <mxPoint x="670" y="640" as="targetPoint" />
          </mxGeometry>
        </mxCell>
        <mxCell id="IYGyxFWno1vfdrMYQsZQ-47" value="0" style="edgeLabel;html=1;align=center;verticalAlign=middle;resizable=0;points=[];" vertex="1" connectable="0" parent="IYGyxFWno1vfdrMYQsZQ-4">
          <mxGeometry x="-0.974" relative="1" as="geometry">
            <mxPoint x="-27" as="offset" />
          </mxGeometry>
        </mxCell>
        <mxCell id="IYGyxFWno1vfdrMYQsZQ-5" value="" style="endArrow=none;dashed=1;html=1;dashPattern=1 3;strokeWidth=2;rounded=0;fillColor=#e1d5e7;strokeColor=#9673a6;" edge="1" parent="1">
          <mxGeometry width="50" height="50" relative="1" as="geometry">
            <mxPoint x="120" y="520" as="sourcePoint" />
            <mxPoint x="670" y="520" as="targetPoint" />
          </mxGeometry>
        </mxCell>
        <mxCell id="IYGyxFWno1vfdrMYQsZQ-48" value="&lt;b&gt;LIMIT_invalid&lt;br&gt;&lt;/b&gt;" style="edgeLabel;html=1;align=center;verticalAlign=middle;resizable=0;points=[];" vertex="1" connectable="0" parent="IYGyxFWno1vfdrMYQsZQ-5">
          <mxGeometry x="-0.974" y="3" relative="1" as="geometry">
            <mxPoint x="-37" as="offset" />
          </mxGeometry>
        </mxCell>
        <mxCell id="IYGyxFWno1vfdrMYQsZQ-6" value="" style="endArrow=none;html=1;rounded=0;fillColor=#f8cecc;strokeColor=#b85450;strokeWidth=4;" edge="1" parent="1">
          <mxGeometry width="50" height="50" relative="1" as="geometry">
            <mxPoint x="140" y="640" as="sourcePoint" />
            <mxPoint x="210" y="580" as="targetPoint" />
          </mxGeometry>
        </mxCell>
        <mxCell id="IYGyxFWno1vfdrMYQsZQ-7" value="" style="endArrow=none;html=1;rounded=0;fillColor=#f8cecc;strokeColor=#b85450;strokeWidth=4;" edge="1" parent="1">
          <mxGeometry width="50" height="50" relative="1" as="geometry">
            <mxPoint x="240" y="610" as="sourcePoint" />
            <mxPoint x="210" y="580" as="targetPoint" />
          </mxGeometry>
        </mxCell>
        <mxCell id="IYGyxFWno1vfdrMYQsZQ-10" value="" style="endArrow=none;html=1;rounded=0;fillColor=#f8cecc;strokeColor=#b85450;strokeWidth=4;" edge="1" parent="1">
          <mxGeometry width="50" height="50" relative="1" as="geometry">
            <mxPoint x="240" y="610" as="sourcePoint" />
            <mxPoint x="320" y="520" as="targetPoint" />
          </mxGeometry>
        </mxCell>
        <mxCell id="IYGyxFWno1vfdrMYQsZQ-11" value="" style="endArrow=none;html=1;rounded=0;fillColor=#f8cecc;strokeColor=#b85450;strokeWidth=4;" edge="1" parent="1">
          <mxGeometry width="50" height="50" relative="1" as="geometry">
            <mxPoint x="420" y="520" as="sourcePoint" />
            <mxPoint x="320" y="520" as="targetPoint" />
          </mxGeometry>
        </mxCell>
        <mxCell id="IYGyxFWno1vfdrMYQsZQ-13" value="" style="endArrow=none;html=1;rounded=0;fillColor=#f8cecc;strokeColor=#b85450;strokeWidth=4;" edge="1" parent="1">
          <mxGeometry width="50" height="50" relative="1" as="geometry">
            <mxPoint x="540" y="640" as="sourcePoint" />
            <mxPoint x="420" y="520" as="targetPoint" />
          </mxGeometry>
        </mxCell>
        <mxCell id="IYGyxFWno1vfdrMYQsZQ-15" value="" style="endArrow=none;html=1;rounded=0;fillColor=#f8cecc;strokeColor=#b85450;strokeWidth=4;" edge="1" parent="1">
          <mxGeometry width="50" height="50" relative="1" as="geometry">
            <mxPoint x="620" y="640" as="sourcePoint" />
            <mxPoint x="540" y="640" as="targetPoint" />
          </mxGeometry>
        </mxCell>
        <mxCell id="IYGyxFWno1vfdrMYQsZQ-16" value="" style="endArrow=none;html=1;rounded=0;fillColor=#f8cecc;strokeColor=#b85450;strokeWidth=4;exitX=0.985;exitY=0.683;exitDx=0;exitDy=0;exitPerimeter=0;" edge="1" parent="1" source="IYGyxFWno1vfdrMYQsZQ-14">
          <mxGeometry width="50" height="50" relative="1" as="geometry">
            <mxPoint x="630" y="650" as="sourcePoint" />
            <mxPoint x="620" y="640" as="targetPoint" />
          </mxGeometry>
        </mxCell>
        <mxCell id="IYGyxFWno1vfdrMYQsZQ-18" value="" style="endArrow=none;html=1;rounded=0;fillColor=#f8cecc;strokeColor=#b85450;strokeWidth=4;" edge="1" parent="1">
          <mxGeometry width="50" height="50" relative="1" as="geometry">
            <mxPoint x="370" y="600" as="sourcePoint" />
            <mxPoint x="400" y="600" as="targetPoint" />
          </mxGeometry>
        </mxCell>
        <mxCell id="IYGyxFWno1vfdrMYQsZQ-19" value="counterInvalid" style="edgeLabel;html=1;align=center;verticalAlign=middle;resizable=0;points=[];" vertex="1" connectable="0" parent="IYGyxFWno1vfdrMYQsZQ-18">
          <mxGeometry x="0.4095" relative="1" as="geometry">
            <mxPoint y="-10" as="offset" />
          </mxGeometry>
        </mxCell>
        <mxCell id="IYGyxFWno1vfdrMYQsZQ-20" value="" style="endArrow=classic;html=1;rounded=0;" edge="1" parent="1">
          <mxGeometry width="50" height="50" relative="1" as="geometry">
            <mxPoint x="690" y="570" as="sourcePoint" />
            <mxPoint x="740" y="520" as="targetPoint" />
          </mxGeometry>
        </mxCell>
        <mxCell id="IYGyxFWno1vfdrMYQsZQ-21" value="counts up&lt;br&gt;when&lt;br&gt;TRUE == SIG_invalid" style="edgeLabel;html=1;align=center;verticalAlign=middle;resizable=0;points=[];" vertex="1" connectable="0" parent="IYGyxFWno1vfdrMYQsZQ-20">
          <mxGeometry x="0.3" y="2" relative="1" as="geometry">
            <mxPoint x="59" y="14" as="offset" />
          </mxGeometry>
        </mxCell>
        <mxCell id="IYGyxFWno1vfdrMYQsZQ-22" value="" style="endArrow=classic;html=1;rounded=0;" edge="1" parent="1">
          <mxGeometry width="50" height="50" relative="1" as="geometry">
            <mxPoint x="690" y="590" as="sourcePoint" />
            <mxPoint x="730" y="630" as="targetPoint" />
          </mxGeometry>
        </mxCell>
        <mxCell id="IYGyxFWno1vfdrMYQsZQ-23" value="counts down&lt;br&gt;when&lt;br&gt;FALSE == SIG_invalid" style="edgeLabel;html=1;align=center;verticalAlign=middle;resizable=0;points=[];" vertex="1" connectable="0" parent="IYGyxFWno1vfdrMYQsZQ-22">
          <mxGeometry x="0.3" y="2" relative="1" as="geometry">
            <mxPoint x="63" y="-14" as="offset" />
          </mxGeometry>
        </mxCell>
        <mxCell id="IYGyxFWno1vfdrMYQsZQ-24" value="DebouncingInvalid" style="text;html=1;strokeColor=none;fillColor=none;align=center;verticalAlign=middle;whiteSpace=wrap;rounded=0;fontStyle=1" vertex="1" parent="1">
          <mxGeometry x="330" y="440" width="120" height="30" as="geometry" />
        </mxCell>
        <mxCell id="IYGyxFWno1vfdrMYQsZQ-49" value="TIMEOUT_FALSE" style="rounded=0;whiteSpace=wrap;html=1;fillColor=#d5e8d4;strokeColor=#82b366;verticalAlign=top;" vertex="1" parent="1">
          <mxGeometry x="540" y="220" width="130" height="180" as="geometry" />
        </mxCell>
        <mxCell id="IYGyxFWno1vfdrMYQsZQ-50" value="TIMEOUT_TRUE" style="rounded=0;whiteSpace=wrap;html=1;fillColor=#f8cecc;strokeColor=#b85450;verticalAlign=top;" vertex="1" parent="1">
          <mxGeometry x="290" y="220" width="250" height="180" as="geometry" />
        </mxCell>
        <mxCell id="IYGyxFWno1vfdrMYQsZQ-51" value="TIMEOUT_FALSE" style="rounded=0;whiteSpace=wrap;html=1;fillColor=#d5e8d4;strokeColor=#82b366;verticalAlign=top;" vertex="1" parent="1">
          <mxGeometry x="144" y="220" width="146" height="180" as="geometry" />
        </mxCell>
        <mxCell id="IYGyxFWno1vfdrMYQsZQ-52" value="" style="endArrow=classic;html=1;rounded=0;strokeWidth=5;" edge="1" parent="1">
          <mxGeometry width="50" height="50" relative="1" as="geometry">
            <mxPoint x="115" y="400" as="sourcePoint" />
            <mxPoint x="705" y="400" as="targetPoint" />
          </mxGeometry>
        </mxCell>
        <mxCell id="IYGyxFWno1vfdrMYQsZQ-53" value="" style="endArrow=classic;html=1;rounded=0;strokeWidth=5;" edge="1" parent="1">
          <mxGeometry width="50" height="50" relative="1" as="geometry">
            <mxPoint x="145" y="420" as="sourcePoint" />
            <mxPoint x="145" y="180" as="targetPoint" />
          </mxGeometry>
        </mxCell>
        <mxCell id="IYGyxFWno1vfdrMYQsZQ-54" value="" style="endArrow=none;dashed=1;html=1;dashPattern=1 3;strokeWidth=2;rounded=0;fontStyle=1" edge="1" parent="1">
          <mxGeometry width="50" height="50" relative="1" as="geometry">
            <mxPoint x="125" y="380" as="sourcePoint" />
            <mxPoint x="675" y="380" as="targetPoint" />
          </mxGeometry>
        </mxCell>
        <mxCell id="IYGyxFWno1vfdrMYQsZQ-55" value="0" style="edgeLabel;html=1;align=center;verticalAlign=middle;resizable=0;points=[];" vertex="1" connectable="0" parent="IYGyxFWno1vfdrMYQsZQ-54">
          <mxGeometry x="-0.974" relative="1" as="geometry">
            <mxPoint x="-27" as="offset" />
          </mxGeometry>
        </mxCell>
        <mxCell id="IYGyxFWno1vfdrMYQsZQ-56" value="" style="endArrow=none;dashed=1;html=1;dashPattern=1 3;strokeWidth=2;rounded=0;fillColor=#e1d5e7;strokeColor=#9673a6;" edge="1" parent="1">
          <mxGeometry width="50" height="50" relative="1" as="geometry">
            <mxPoint x="125" y="260" as="sourcePoint" />
            <mxPoint x="675" y="260" as="targetPoint" />
          </mxGeometry>
        </mxCell>
        <mxCell id="IYGyxFWno1vfdrMYQsZQ-57" value="&lt;b&gt;LIMIT_timeout&lt;/b&gt;" style="edgeLabel;html=1;align=center;verticalAlign=middle;resizable=0;points=[];" vertex="1" connectable="0" parent="IYGyxFWno1vfdrMYQsZQ-56">
          <mxGeometry x="-0.974" y="3" relative="1" as="geometry">
            <mxPoint x="-37" as="offset" />
          </mxGeometry>
        </mxCell>
        <mxCell id="IYGyxFWno1vfdrMYQsZQ-58" value="" style="endArrow=none;html=1;rounded=0;fillColor=#dae8fc;strokeColor=#6c8ebf;strokeWidth=4;" edge="1" parent="1">
          <mxGeometry width="50" height="50" relative="1" as="geometry">
            <mxPoint x="165" y="380" as="sourcePoint" />
            <mxPoint x="290" y="260" as="targetPoint" />
          </mxGeometry>
        </mxCell>
        <mxCell id="IYGyxFWno1vfdrMYQsZQ-60" value="" style="endArrow=none;html=1;rounded=0;fillColor=#dae8fc;strokeColor=#6c8ebf;strokeWidth=4;" edge="1" parent="1">
          <mxGeometry width="50" height="50" relative="1" as="geometry">
            <mxPoint x="290" y="260" as="sourcePoint" />
            <mxPoint x="345" y="260" as="targetPoint" />
          </mxGeometry>
        </mxCell>
        <mxCell id="IYGyxFWno1vfdrMYQsZQ-61" value="" style="endArrow=none;html=1;rounded=0;fillColor=#dae8fc;strokeColor=#6c8ebf;strokeWidth=4;" edge="1" parent="1">
          <mxGeometry width="50" height="50" relative="1" as="geometry">
            <mxPoint x="390" y="300" as="sourcePoint" />
            <mxPoint x="345" y="260" as="targetPoint" />
          </mxGeometry>
        </mxCell>
        <mxCell id="IYGyxFWno1vfdrMYQsZQ-62" value="" style="endArrow=none;html=1;rounded=0;fillColor=#dae8fc;strokeColor=#6c8ebf;strokeWidth=4;entryX=0.4;entryY=0.444;entryDx=0;entryDy=0;entryPerimeter=0;" edge="1" parent="1" target="IYGyxFWno1vfdrMYQsZQ-50">
          <mxGeometry width="50" height="50" relative="1" as="geometry">
            <mxPoint x="410" y="300" as="sourcePoint" />
            <mxPoint x="445" y="260" as="targetPoint" />
          </mxGeometry>
        </mxCell>
        <mxCell id="IYGyxFWno1vfdrMYQsZQ-63" value="" style="endArrow=none;html=1;rounded=0;fillColor=#dae8fc;strokeColor=#6c8ebf;strokeWidth=4;" edge="1" parent="1">
          <mxGeometry width="50" height="50" relative="1" as="geometry">
            <mxPoint x="670" y="380" as="sourcePoint" />
            <mxPoint x="540" y="380" as="targetPoint" />
          </mxGeometry>
        </mxCell>
        <mxCell id="IYGyxFWno1vfdrMYQsZQ-65" value="" style="endArrow=none;html=1;rounded=0;fillColor=#dae8fc;strokeColor=#6c8ebf;strokeWidth=4;" edge="1" parent="1">
          <mxGeometry width="50" height="50" relative="1" as="geometry">
            <mxPoint x="395" y="340" as="sourcePoint" />
            <mxPoint x="425" y="340" as="targetPoint" />
          </mxGeometry>
        </mxCell>
        <mxCell id="IYGyxFWno1vfdrMYQsZQ-66" value="counterTimeout" style="edgeLabel;html=1;align=center;verticalAlign=middle;resizable=0;points=[];" vertex="1" connectable="0" parent="IYGyxFWno1vfdrMYQsZQ-65">
          <mxGeometry x="0.4095" relative="1" as="geometry">
            <mxPoint y="-10" as="offset" />
          </mxGeometry>
        </mxCell>
        <mxCell id="IYGyxFWno1vfdrMYQsZQ-67" value="" style="endArrow=classic;html=1;rounded=0;" edge="1" parent="1">
          <mxGeometry width="50" height="50" relative="1" as="geometry">
            <mxPoint x="695" y="310" as="sourcePoint" />
            <mxPoint x="745" y="260" as="targetPoint" />
          </mxGeometry>
        </mxCell>
        <mxCell id="IYGyxFWno1vfdrMYQsZQ-68" value="counts up&lt;br&gt;when&lt;br&gt;TRUE == COM_timeout" style="edgeLabel;html=1;align=center;verticalAlign=middle;resizable=0;points=[];" vertex="1" connectable="0" parent="IYGyxFWno1vfdrMYQsZQ-67">
          <mxGeometry x="0.3" y="2" relative="1" as="geometry">
            <mxPoint x="59" y="14" as="offset" />
          </mxGeometry>
        </mxCell>
        <mxCell id="IYGyxFWno1vfdrMYQsZQ-69" value="" style="endArrow=classic;html=1;rounded=0;" edge="1" parent="1">
          <mxGeometry width="50" height="50" relative="1" as="geometry">
            <mxPoint x="695" y="330" as="sourcePoint" />
            <mxPoint x="735" y="370" as="targetPoint" />
          </mxGeometry>
        </mxCell>
        <mxCell id="IYGyxFWno1vfdrMYQsZQ-70" value="counts down&lt;br&gt;when&lt;br&gt;FALSE == COM_timeout" style="edgeLabel;html=1;align=center;verticalAlign=middle;resizable=0;points=[];" vertex="1" connectable="0" parent="IYGyxFWno1vfdrMYQsZQ-69">
          <mxGeometry x="0.3" y="2" relative="1" as="geometry">
            <mxPoint x="63" y="-14" as="offset" />
          </mxGeometry>
        </mxCell>
        <mxCell id="IYGyxFWno1vfdrMYQsZQ-71" value="DebouncingTimeout" style="text;html=1;strokeColor=none;fillColor=none;align=center;verticalAlign=middle;whiteSpace=wrap;rounded=0;fontStyle=1" vertex="1" parent="1">
          <mxGeometry x="335" y="180" width="120" height="30" as="geometry" />
        </mxCell>
        <mxCell id="IYGyxFWno1vfdrMYQsZQ-72" value="" style="endArrow=none;html=1;rounded=0;fillColor=#dae8fc;strokeColor=#6c8ebf;strokeWidth=4;" edge="1" parent="1">
          <mxGeometry width="50" height="50" relative="1" as="geometry">
            <mxPoint x="450" y="260" as="sourcePoint" />
            <mxPoint x="410" y="300" as="targetPoint" />
          </mxGeometry>
        </mxCell>
        <mxCell id="IYGyxFWno1vfdrMYQsZQ-73" value="" style="endArrow=none;html=1;rounded=0;fillColor=#dae8fc;strokeColor=#6c8ebf;strokeWidth=4;" edge="1" parent="1">
          <mxGeometry width="50" height="50" relative="1" as="geometry">
            <mxPoint x="450" y="260" as="sourcePoint" />
            <mxPoint x="540" y="380" as="targetPoint" />
          </mxGeometry>
        </mxCell>
        <mxCell id="IYGyxFWno1vfdrMYQsZQ-74" value="" style="endArrow=none;html=1;rounded=0;fillColor=#dae8fc;strokeColor=#6c8ebf;strokeWidth=4;" edge="1" parent="1">
          <mxGeometry width="50" height="50" relative="1" as="geometry">
            <mxPoint x="144" y="380" as="sourcePoint" />
            <mxPoint x="170" y="380" as="targetPoint" />
          </mxGeometry>
        </mxCell>
      </root>
    </mxGraphModel>
  </diagram>
</mxfile>
